{
	"patcher" : 	{
		"fileversion" : 1,
		"appversion" : 		{
			"major" : 9,
			"minor" : 0,
			"revision" : 5,
			"architecture" : "x64",
			"modernui" : 1
		}
,
		"classnamespace" : "box",
		"rect" : [ 34.0, 128.0, 1444.0, 777.0 ],
		"gridsize" : [ 15.0, 15.0 ],
		"boxes" : [ 			{
				"box" : 				{
					"id" : "obj-66",
					"maxclass" : "newobj",
					"numinlets" : 1,
					"numoutlets" : 0,
					"patching_rect" : [ 225.000011801719666, 293.965532660484314, 32.0, 22.0 ],
					"text" : "print"
				}

			}
, 			{
				"box" : 				{
					"id" : "obj-65",
					"maxclass" : "newobj",
					"numinlets" : 1,
					"numoutlets" : 1,
					"outlettype" : [ "" ],
					"patching_rect" : [ 225.000011801719666, 249.137944102287292, 97.0, 22.0 ],
					"text" : "udpreceive 9999"
				}

			}
, 			{
				"box" : 				{
					"id" : "obj-64",
					"maxclass" : "button",
					"numinlets" : 1,
					"numoutlets" : 1,
					"outlettype" : [ "bang" ],
					"parameter_enable" : 0,
					"patching_rect" : [ 118.965523481369019, 75.172411441802979, 24.0, 24.0 ]
				}

			}
, 			{
				"box" : 				{
					"id" : "obj-63",
					"maxclass" : "message",
					"numinlets" : 2,
					"numoutlets" : 1,
					"outlettype" : [ "" ],
					"patching_rect" : [ 118.965523481369019, 179.482761740684509, 53.0, 22.0 ],
					"text" : "/whoami"
				}

			}
, 			{
				"box" : 				{
					"id" : "obj-62",
					"maxclass" : "newobj",
					"numinlets" : 2,
					"numoutlets" : 1,
					"outlettype" : [ "bang" ],
					"patching_rect" : [ 118.965523481369019, 120.0, 69.0, 22.0 ],
					"text" : "metro 5000"
				}

			}
, 			{
				"box" : 				{
					"id" : "obj-57",
					"maxclass" : "message",
					"numinlets" : 2,
					"numoutlets" : 1,
					"outlettype" : [ "" ],
					"patching_rect" : [ 225.0, 120.0, 149.0, 22.0 ],
					"text" : "/encoder/start_monitor 0.1"
				}

			}
, 			{
				"box" : 				{
					"id" : "obj-58",
					"maxclass" : "button",
					"numinlets" : 1,
					"numoutlets" : 1,
					"outlettype" : [ "bang" ],
					"parameter_enable" : 0,
					"patching_rect" : [ 225.0, 74.31034243106842, 24.0, 24.0 ]
				}

			}
, 			{
				"box" : 				{
					"id" : "obj-12",
					"maxclass" : "message",
					"numinlets" : 2,
					"numoutlets" : 1,
					"outlettype" : [ "" ],
					"patching_rect" : [ 556.034511923789978, 120.0, 105.0, 22.0 ],
					"text" : "/encoder/set_zero"
				}

			}
, 			{
				"box" : 				{
					"id" : "obj-11",
					"maxclass" : "message",
					"numinlets" : 2,
					"numoutlets" : 1,
					"outlettype" : [ "" ],
					"patching_rect" : [ 394.827606916427612, 120.0, 128.0, 22.0 ],
					"text" : "/encoder/stop_monitor"
				}

			}
, 			{
				"box" : 				{
					"id" : "obj-8",
					"maxclass" : "button",
					"numinlets" : 1,
					"numoutlets" : 1,
					"outlettype" : [ "bang" ],
					"parameter_enable" : 0,
					"patching_rect" : [ 556.034511923789978, 75.172411441802979, 24.0, 24.0 ]
				}

			}
, 			{
				"box" : 				{
					"id" : "obj-7",
					"maxclass" : "button",
					"numinlets" : 1,
					"numoutlets" : 1,
					"outlettype" : [ "bang" ],
					"parameter_enable" : 0,
					"patching_rect" : [ 394.827606916427612, 75.172411441802979, 24.0, 24.0 ]
				}

			}
, 			{
				"box" : 				{
					"id" : "obj-2",
					"maxclass" : "newobj",
					"numinlets" : 1,
					"numoutlets" : 0,
					"patching_rect" : [ 225.000011801719666, 201.724148511886597, 171.0, 22.0 ],
					"text" : "udpsend 192.168.50.100 8888"
				}

			}
 ],
		"lines" : [ 			{
				"patchline" : 				{
					"destination" : [ "obj-2", 0 ],
					"source" : [ "obj-11", 0 ]
				}

			}
, 			{
				"patchline" : 				{
					"destination" : [ "obj-2", 0 ],
					"source" : [ "obj-12", 0 ]
				}

			}
, 			{
				"patchline" : 				{
					"destination" : [ "obj-2", 0 ],
					"source" : [ "obj-57", 0 ]
				}

			}
, 			{
				"patchline" : 				{
					"destination" : [ "obj-57", 0 ],
					"source" : [ "obj-58", 0 ]
				}

			}
, 			{
				"patchline" : 				{
					"destination" : [ "obj-63", 0 ],
					"source" : [ "obj-62", 0 ]
				}

			}
, 			{
				"patchline" : 				{
					"destination" : [ "obj-2", 0 ],
					"source" : [ "obj-63", 0 ]
				}

			}
, 			{
				"patchline" : 				{
					"destination" : [ "obj-62", 0 ],
					"source" : [ "obj-64", 0 ]
				}

			}
, 			{
				"patchline" : 				{
					"destination" : [ "obj-66", 0 ],
					"source" : [ "obj-65", 0 ]
				}

			}
, 			{
				"patchline" : 				{
					"destination" : [ "obj-11", 0 ],
					"source" : [ "obj-7", 0 ]
				}

			}
, 			{
				"patchline" : 				{
					"destination" : [ "obj-12", 0 ],
					"source" : [ "obj-8", 0 ]
				}

			}
 ],
		"originid" : "pat-44",
		"dependency_cache" : [  ],
		"autosave" : 0
	}

}
